<svg xmlns="http://www.w3.org/2000/svg" xml:space="preserve" viewBox="0 0 350 336">
  <g class="cookie">
    <g fill="#432918" class="arms">
      <path
        d="M35.437934 201.616493c-12.262066-12.992683-19.291941-30.904435-19.283346-48.774438 0-.073676.001228-.147351.001228-.221027 5.744237-.891474 12.03374-8.965724 9.485165-10.278131-9.899613-5.097893-4.24057-7.17536-4.424893-14.654066-6.101108-6.22986-19.703491 5.684523-21.21609 16.721058 0 3.980935 4.269497 7.318437 10.013734 8.209911 0 .073676-.253685 2.671918-.253685 2.745593.008596 19.467535 7.837354 36.266835 21.208237 50.461657 9.251193 9.801303 21.1105 16.987124 33.971797 20.869826-.6508-2.328148-1.246344-4.680853-1.784176-7.055662-10.477894-3.767276-20.10606-9.942514-27.71797-18.024721z"
        class="arm-left" />
      <path
        d="M314.561824 201.786708c12.262066-12.99267 19.29194-30.904423 19.283345-48.774426 0-.073675-.001007-.14735-.001007-.221026-5.744236-.891475-12.033733-8.965725-9.485161-10.278132 9.89961-5.097893 4.240568-7.17536 4.42488-14.654065 6.10112-6.229866 19.703492 5.684522 21.2161 16.721057 0 3.980935-4.269498 7.318438-10.013734 8.209912 0 .073675.253677 2.671905.253677 2.745592-.008596 19.467535-7.837347 36.266824-21.20823 50.461657-9.251192 9.801303-21.110499 16.987112-33.971805 20.869814.650813-2.328135 1.246357-4.680841 1.784188-7.05565 10.47789-3.767275 20.106056-9.942514 27.717968-18.024733z"
        class="arm-right" />
    </g>
    <g class="body-round" transform="translate(-42.079717 31.545069) scale(1.0098286)">
      <ellipse cx="215.22241" cy="180.59819" fill="#d5975d" rx="118.08022" ry="120.00803" />
      <path fill="#daa272"
        d="M312.901 148.405c.488-.882 1.069-1.716 1.728-2.482-1.871-14.004-8.12-27.354-17.002-38.535-5.395-6.791-11.813-12.781-18.945-17.817-4.154 2.637-10.52 2.374-14.304-1.707-2.074-2.237-3.403-5.207-3.503-8.244-13.204-5.664-27.69-8.446-42.112-7.67-6.001.323-12.087 1.27-17.644 3.595-2.676 1.12-12.605 5.722-7.607 9.899 1.625 1.358 3.965 1.402 6.104 1.511 9.031.46 17.898 3.331 25.487 8.116 13.286 8.376 22.04 21.94 30.182 35.17l.624 1.014c1.139-1.56 2.628-2.876 4.283-3.869 11.209-7.253 19.307 6.945 13.316 15.135-1.731 2.367-4.26 4.186-7.084 4.924 5.132 7.135 10.918 13.711 18.126 18.808 3.517 2.487 7.407 4.61 11.67 5.439 8.848 1.72 15.083-3.024 17.639-10.172-2.562-3.641-3.333-8.825-.958-13.115zm-27.731-21.552c-1.946-.089-3.881-.926-5.151-2.404-1.271-1.478-1.806-3.604-1.228-5.465.502-1.616 1.805-2.936 3.374-3.571 1.933-.783 4.14-.529 5.993.353 6.973 3.035 2.786 11.35-2.988 11.087z" />
      <path fill="#aa5d28"
        d="M248.993 295.69c.115-.035.23-.07.344-.105l.285-.087c.179-.055.358-.111.537-.167.105-.033.21-.066.315-.1.128-.041.255-.081.383-.122l.288-.093c.119-.039.239-.077.358-.116.094-.031.188-.062.283-.093.11-.036.219-.073.329-.109.106-.035.212-.071.317-.106.104-.035.208-.07.312-.106.104-.035.209-.071.313-.107.105-.036.209-.072.314-.108.103-.036.206-.072.31-.108.106-.037.212-.074.318-.112.101-.036.202-.071.304-.107l.327-.117c.098-.035.196-.07.294-.106.131-.047.261-.095.391-.143.122-.045.245-.09.367-.135.15-.056.3-.111.45-.167.104-.039.207-.078.31-.117.102-.039.205-.077.307-.116.098-.037.195-.075.292-.112.111-.043.222-.085.333-.128.092-.035.183-.071.275-.107l.345-.135c.093-.037.186-.073.279-.11l.315-.126.312-.126c.099-.04.198-.08.297-.121.103-.042.205-.084.307-.126.105-.043.21-.087.315-.13.096-.04.191-.079.287-.119.111-.046.221-.093.332-.139.094-.039.187-.079.281-.118.191-.081.383-.163.573-.245.094-.04.188-.082.282-.122.106-.046.213-.092.319-.138.105-.046.21-.092.314-.138.092-.041.185-.081.277-.122.108-.048.215-.096.322-.144.094-.042.187-.084.28-.126.103-.046.206-.093.309-.14.095-.043.191-.087.286-.13.106-.049.212-.097.318-.146.091-.042.181-.084.272-.126.106-.049.212-.098.318-.148.09-.042.18-.084.269-.126.107-.05.214-.101.32-.151.093-.044.185-.088.277-.132.105-.05.211-.1.315-.151.042-.02.084-.04.125-.061.282-.136.563-.273.843-.411l.159-.078c.113-.056.226-.112.339-.169.084-.042.169-.084.253-.126.104-.052.207-.104.311-.157.09-.045.18-.091.269-.136.105-.053.209-.107.314-.16.09-.046.18-.092.27-.139.102-.053.205-.106.307-.159.088-.046.176-.091.263-.137.109-.057.217-.114.326-.171.076-.04.153-.081.229-.121l.345-.183c.075-.04.15-.08.224-.12.115-.061.229-.123.343-.185.077-.042.154-.084.23-.125.206-.112.412-.225.617-.338.086-.047.172-.094.257-.142.107-.059.213-.119.32-.178.081-.045.163-.091.244-.136.104-.059.209-.118.313-.177.086-.049.173-.098.259-.147.101-.057.201-.115.302-.173.085-.049.171-.098.256-.147.11-.063.22-.127.33-.191.069-.04.138-.081.208-.121l.348-.204c.073-.043.146-.086.22-.13.11-.065.22-.13.329-.195l.216-.129c.117-.07.234-.14.35-.21.039-.023.077-.047.115-.07.444-.268.886-.54 1.326-.814.052-.032.104-.065.156-.097.112-.07.224-.141.336-.211.074-.047.148-.094.223-.14.106-.067.212-.135.318-.202.073-.047.146-.093.219-.14.111-.071.221-.142.331-.213.069-.044.138-.089.206-.133.105-.068.21-.137.316-.205-.753-.511-1.442-1.114-2.037-1.807-.263-.306-.505-.629-.727-.966-17.54 10.443-37.981 16.433-59.807 16.433-42.204 0-79.237-22.395-100.119-56.077-1.313.691-2.639 1.007-3.926 1.017.431.765.869 1.525 1.316 2.279 1.221 2.061 2.502 4.081 3.839 6.058.535.791 1.079 1.575 1.633 2.352.415.583.835 1.162 1.26 1.737.567.767 1.142 1.526 1.727 2.278.292.376.587.75.883 1.123.297.372.595.743.896 1.112.451.553.907 1.102 1.368 1.647.154.182.308.363.462.543.928 1.084 1.875 2.15 2.84 3.199.322.35.646.697.971 1.043.815.864 1.642 1.716 2.482 2.556.168.168.336.335.505.502 1.014 1.001 2.045 1.984 3.094 2.948.35.321.701.641 1.054.958.707.634 1.421 1.26 2.143 1.877.541.463 1.087.921 1.636 1.374.366.302.734.602 1.104.9.74.595 1.487 1.182 2.242 1.76.754.578 1.516 1.147 2.284 1.706.384.28.77.557 1.158.833.387.275.777.548 1.168.819.391.271.784.539 1.178.805.591.399 1.187.793 1.786 1.181.399.259.8.516 1.203.77 1.61 1.017 3.246 1.996 4.907 2.935.415.235.832.467 1.25.697.418.23.838.457 1.259.682.283.151.567.301.851.449.351.184.702.366 1.055.546.213.109.426.217.64.324.855.43 1.715.849 2.581 1.258.217.102.433.204.651.305.435.202.87.401 1.308.598.437.197.876.391 1.316.583.44.192.882.38 1.325.567.886.373 1.777.734 2.673 1.086.363.142.727.282 1.091.421.147.056.294.112.442.167.39.146.781.291 1.172.434.227.082.454.164.681.245.396.141.794.28 1.192.417.287.099.575.197.863.294.459.154.918.305 1.379.453 4.61 1.482 9.343 2.686 14.179 3.591.242.045.484.09.726.133.928.168 1.86.324 2.796.47 1.656.258 3.323.48 5 .668 4.304.481 8.678.728 13.108.728.234 0 .468-.001.702-.002.07 0 .139-.001.209-.002h.029c.151-.001.302-.003.453-.004.093-.001.186-.003.278-.004h.034l.378-.006c.102-.002.205-.004.307-.006.014 0 .029 0 .043-.001.118-.002.236-.005.355-.008.096-.002.193-.005.289-.007.025-.001.05-.001.075-.002.114-.003.227-.006.34-.01.094-.003.187-.005.281-.008.027-.001.054-.002.082-.003.113-.004.225-.008.337-.012.095-.003.19-.007.284-.01.053-.002.107-.004.16-.006.089-.003.177-.007.266-.011.087-.004.175-.007.262-.011.037-.002.075-.003.112-.005.074-.003.149-.007.223-.01.059-.003.118-.005.177-.008.061-.003.121-.005.182-.008.041-.002.081-.004.122-.006.089-.004.177-.009.265-.014.1-.005.199-.01.299-.016.063-.004.126-.007.19-.011.079-.004.159-.009.238-.014.084-.005.167-.01.251-.015l.282-.018c.062-.004.123-.008.185-.012.076-.005.152-.01.227-.015.093-.006.185-.013.277-.019.067-.005.133-.009.2-.014.071-.005.142-.01.213-.016.095-.007.189-.014.284-.021l.117-.009c.028-.002.055-.004.083-.006.066-.005.133-.011.199-.016.098-.008.197-.016.295-.024.066-.005.133-.011.199-.016.066-.005.131-.011.197-.017.097-.008.193-.016.29-.025l.21-.018c.068-.006.137-.012.205-.019l.264-.024c.079-.007.159-.015.238-.023.088-.008.175-.017.263-.025.06-.006.12-.011.18-.017.088-.009.176-.018.263-.027.096-.01.193-.02.289-.029.041-.004.082-.009.124-.013.062-.007.123-.013.185-.02.038-.004.075-.008.113-.012.091-.01.183-.019.274-.029.036-.004.072-.008.109-.012.085-.009.169-.019.253-.029.067-.008.134-.015.201-.023.044-.005.088-.01.133-.015.031-.004.061-.007.092-.011.09-.01.181-.021.271-.032.105-.013.21-.025.314-.038.035-.004.07-.009.104-.013.086-.01.173-.021.259-.032.106-.013.211-.026.316-.04.033-.004.065-.008.098-.013l.282-.036c.099-.013.197-.026.296-.039.032-.004.063-.008.095-.013l.288-.039c.104-.014.208-.029.312-.043.027-.004.053-.008.08-.011.095-.013.19-.026.284-.04.11-.016.22-.032.329-.048.025-.004.051-.007.076-.011l.267-.039c.094-.014.188-.028.283-.043.034-.005.069-.01.103-.016.092-.014.183-.027.275-.042l.06-.009c.059-.009.118-.019.177-.028.137-.022.274-.043.411-.065l.018-.003c.084-.013.169-.027.253-.041l.093-.015.312-.051c.002 0 .005-.001.007-.001.095-.016.19-.032.284-.048.027-.005.054-.009.082-.014.099-.017.198-.034.296-.051.002 0 .003-.001.005-.001l.291-.051.084-.015c.098-.017.196-.035.294-.052.096-.017.192-.034.288-.052l.084-.015c.1-.018.2-.037.3-.055.095-.018.19-.035.285-.053.035-.007.069-.013.104-.019.062-.012.123-.023.184-.035.029-.005.058-.011.086-.017.099-.019.197-.037.296-.057.12-.023.239-.047.359-.07l.303-.06c.014-.003.028-.005.042-.008.121-.024.242-.049.363-.073.103-.021.205-.042.308-.063.142-.029.283-.059.425-.089.053-.011.106-.022.158-.033.08-.017.161-.035.241-.052.082-.018.164-.035.246-.052.057-.012.114-.025.17-.037.096-.021.193-.042.289-.064.072-.016.144-.031.216-.047.048-.011.095-.021.143-.032.1-.022.2-.045.3-.068.069-.016.139-.031.208-.047l.09-.021.066-.015c.098-.022.195-.045.292-.067.12-.028.24-.056.359-.084.098-.023.197-.046.295-.07.125-.03.249-.06.374-.09.09-.022.179-.043.269-.065.004-.001.007-.002.011-.003.038-.009.077-.019.115-.028.092-.023.185-.046.277-.069.084-.021.168-.041.252-.063l.12-.03c.105-.027.211-.053.316-.08l.213-.054c.033-.008.065-.017.097-.025.171-.044.341-.088.511-.133.007-.002.013-.003.02-.005.092-.024.184-.049.276-.073.121-.032.242-.064.363-.097.106-.028.212-.057.317-.086.108-.029.217-.059.325-.089.104-.029.208-.057.312-.086.111-.031.221-.061.332-.092.105-.029.209-.059.314-.089l.327-.093c.103-.03.206-.059.308-.089.034-.01.067-.019.1-.029.019-.005.038-.011.057-.016.059-.017.118-.035.177-.052.104-.031.208-.061.312-.092.028-.008.056-.016.084-.025.004-.001.008-.002.012-.004.073-.022.146-.044.218-.066.109-.032.216-.064.322-.096zM330.045806 208.668777c-6.535 23.347-19.911 43.787-37.799 58.962.918.674 1.631 1.429 2.162 2.235.314-.289.627-.579.938-.871.021-.02.042-.039.063-.059l.375-.354c.027-.026.055-.052.082-.078.121-.115.242-.23.363-.346.033-.032.066-.064.1-.095.117-.112.234-.225.351-.338.034-.033.067-.065.101-.098l.354-.345c.028-.027.056-.055.083-.082l.375-.369.011-.011c.705-.698 1.402-1.404 2.09-2.12.023-.024.046-.047.068-.071.116-.121.232-.242.348-.364.03-.032.061-.064.092-.096.113-.118.225-.237.337-.356l.096-.102c.116-.124.233-.248.348-.372.018-.02.036-.039.055-.059.124-.133.248-.267.371-.401.012-.013.023-.025.035-.038.678-.736 1.347-1.48 2.006-2.233.005-.005.01-.011.014-.016.118-.135.235-.27.353-.405.025-.029.05-.058.075-.086.114-.131.227-.263.34-.394.02-.023.04-.047.06-.07.116-.135.231-.271.347-.406.018-.022.037-.043.055-.065.119-.141.239-.282.358-.423.003-.004.007-.008.01-.012.774-.921 1.534-1.854 2.281-2.799.017-.021.033-.042.05-.063.113-.143.226-.287.338-.431l.041-.053c.113-.145.227-.291.339-.437.014-.019.028-.037.043-.055.861-1.115 1.702-2.245 2.524-3.391.007-.009.014-.019.02-.028.11-.153.22-.307.329-.461.012-.018.025-.035.037-.053.108-.152.216-.305.323-.458.011-.016.022-.031.033-.047.11-.157.22-.314.329-.471l.013-.019c.696-1.003 1.377-2.017 2.043-3.042.002-.002.003-.005.005-.007.108-.166.216-.333.323-.5l.015-.024c.105-.163.209-.327.313-.491l.025-.039c.103-.162.206-.325.308-.488.007-.011.014-.023.021-.034.757-1.206 1.492-2.426 2.207-3.66.003-.006.007-.012.01-.017.099-.17.196-.341.294-.511.006-.011.013-.022.019-.033.097-.169.193-.339.289-.509.005-.009.01-.019.016-.028 1.817-3.217 3.491-6.528 5.012-9.924.001-.003.003-.006.004-.009.761-1.699 1.484-3.419 2.167-5.16.001-.001.001-.003.002-.004 2.129-5.421 3.877-11.038 5.21-16.816zM106.634806 220.159777c-5.362-13.645-8.31-28.525-8.31-44.102 0-9.371 1.067-18.49 3.085-27.239.001-.006.003-.012.004-.018l-.129.465c-.004.015-.008.029-.012.044-.077.28-.153.56-.228.84-.008.032-.017.063-.025.095-.074.279-.147.558-.22.838-.009.035-.018.069-.027.104-.07.271-.139.543-.207.815-.012.047-.023.093-.035.14-.066.265-.131.53-.195.795-.013.052-.025.103-.037.155-.064.266-.127.533-.189.8-.012.05-.023.099-.035.149-.062.268-.123.536-.184.805-.011.049-.022.099-.033.148-.06.268-.119.537-.177.806-.011.049-.021.099-.032.149-.058.27-.115.54-.171.811-.01.048-.02.096-.029.144-.056.274-.112.548-.167.822-.009.043-.017.087-.026.13-.056.283-.111.565-.165.849-.005.025-.009.05-.014.074-.055.29-.109.58-.162.871-.001.005-.002.009-.003.014-.002.014-.005.027-.007.04v.002c-.028.155-.056.309-.083.464-.003.015-.005.03-.008.046-.022.122-.043.245-.064.368-.005.029-.01.057-.015.086-.05.288-.098.576-.146.865-.006.038-.013.076-.019.114-.027.163-.053.327-.08.49 0 .003-.001.006-.002.009-.005.029-.009.058-.014.087v.003c-.014.089-.028.177-.042.266-.006.04-.013.08-.019.121-.001.008-.002.015-.004.023-.003.016-.005.032-.008.048-.005.029-.009.058-.013.087-.022.14-.043.279-.064.419-.004.027-.008.055-.012.083-.008.055-.017.111-.025.167-.009.057-.017.115-.026.172-.04.27-.079.539-.117.809-.008.057-.016.115-.024.172-.027.194-.054.387-.08.581l-.012.093c-.002.011-.003.022-.004.034-.005.035-.009.069-.014.104-.007.055-.015.111-.022.167-.006.045-.012.089-.018.134-.006.049-.013.098-.019.146-.017.135-.035.271-.052.407l-.012.096c-.002.014-.003.028-.005.041-.006.052-.013.103-.019.155-.034.277-.067.555-.099.833-.006.05-.011.101-.017.151-.005.042-.01.084-.014.126-.005.044-.01.089-.015.133-.003.025-.006.049-.008.074l-.039.357-.012.114c-.002.013-.003.027-.004.04l-.015.138c-.009.087-.019.175-.028.262-.007.068-.014.137-.021.205-.001.008-.002.017-.003.025-.011.111-.023.223-.034.334-.001.013-.003.027-.004.04-.003.03-.006.059-.009.089-.004.04-.008.079-.011.119-.02.205-.039.409-.058.614-.005.054-.01.108-.015.163-.002.019-.003.038-.005.056l-.03.339c-.002.019-.003.039-.005.058-.005.06-.01.119-.015.179-.009.105-.018.21-.026.316-.003.032-.006.065-.008.097-.005.056-.009.112-.014.168-.008.106-.017.212-.025.317-.004.056-.009.112-.013.167l-.009.123c-.003.035-.005.071-.008.106-.003.04-.006.079-.009.119-.001.017-.003.034-.004.051-.008.104-.015.207-.022.311-.005.074-.011.149-.016.223-.006.096-.013.191-.019.287-.003.044-.006.089-.009.133-.004.056-.007.113-.011.169-.006.096-.012.191-.018.287l-.018.294c-.002.035-.004.069-.006.104-.003.054-.006.108-.009.163-.001.008-.001.017-.001.025-.002.027-.003.054-.005.08-.004.075-.008.151-.012.227-.005.09-.01.181-.015.271-.002.041-.004.083-.006.124-.002.039-.004.079-.006.118-.003.053-.005.105-.008.158-.007.136-.013.272-.019.408-.004.081-.008.162-.011.243-.001.024-.002.048-.003.073-.002.041-.003.081-.005.122-.002.055-.004.109-.007.164v.002c-.004.085-.007.171-.01.256-.001.019-.001.037-.002.056-.003.09-.007.18-.01.271l-.009.264c-.002.054-.003.107-.005.161-.002.057-.004.115-.006.172v.003c-.004.114-.007.228-.01.342-.002.078-.005.156-.007.235 0 .018-.001.036-.001.054 0 .018-.001.035-.001.053l-.003.138c-.003.109-.005.217-.007.326-.001.062-.002.124-.004.185-.001.066-.003.133-.004.199-.001.058-.002.116-.003.173-.001.038-.001.075-.002.113-.001.055-.002.109-.003.163l-.003.207c-.001.044-.001.089-.002.133v.016c-.001.079-.002.159-.003.238 0 .052-.001.103-.002.155v.075c0 .025 0 .051-.001.076v.066c0 .079-.001.157-.001.236-.001.148-.001.296-.001.444v.134c0 7.989.775 15.795 2.254 23.344 1.097 5.602 2.581 11.062 4.423 16.352.205.588.415 1.174.628 1.758.664-1.005 1.461-1.92 2.37-2.7z" />
    </g>
    <g stroke="#000" class="hat">
      <path fill="#fff" stroke="#3d3935" stroke-width="4.13162"
        d="M152.585 351.552c0-15.854-12.853-28.707-28.707-28.707-.792 0-1.573.041-2.348.104-3.883-9.403-13.139-16.023-23.945-16.023-10.911 0-20.24 6.751-24.054 16.3-1.515-.247-3.068-.381-4.653-.381-15.854 0-28.707 12.852-28.707 28.707 0 14.22 10.341 26.018 23.912 28.301v11.139h66.5v-11.528c12.619-3.021 22.002-14.367 22.002-27.912z"
        transform="matrix(1.2766137 0 0 1.1698605 53.622227 -356.643884)" />
      <g fill="#3d3935" stroke="none">
        <path
          d="M165.81755 97.22753c.159577 1.500931-2.675782 2.981975-2.675782 2.981975s-3.094511-.952267-3.254088-2.452028l-3.136769-29.938543c-.159576-1.50093 1.037887-2.835742 2.675783-2.981974 1.637895-.146233 3.094511.952266 3.254088 2.452027zM189.95626 97.825118c-.159577 1.500931 2.675782 2.981975 2.675782 2.981975s3.094511-.952267 3.254088-2.452028l3.74113-30.53613c.159576-1.500932-1.037888-2.835743-2.675783-2.981975-1.637896-.146233-3.094512.952266-3.254089 2.452027zM180.964443 97.139147c0 1.93846-1.381296 3.509582-3.085575 3.509582-1.70428 0-3.085575-1.571123-3.085575-3.509582V68.36058c0-1.938458 1.381296-3.509581 3.085575-3.509581 1.70428 0 3.085575 1.571123 3.085575 3.509581z" />
      </g>
      <path fill="#3d3935" stroke="none"
        d="M223.028967 97.29365c-1.720288-.808443-21.322168-1.455388-45.104843-1.455388-23.782658 0-43.384561.637726-45.104838 1.44617h-.004723v9.024889s30.086556-3.353335 45.12334-3.35316c15.036782.000164 45.096107 3.35316 45.096107 3.35316v-9.024889z" />
    </g>
    <g fill="#67220d" class="chocolate">
      <path
        d="M141.114103 100.864528c-.253467-.52915-.538239-1.039114-.852296-1.525851-.00202-.00303-.004039-.00505-.005049-.00808-3.157734-4.88656-9.263158-7.410121-16.404665-2.789146-3.765651 2.259997-6.829471 5.89235-7.72014 10.266928-.213074 1.044162-.29285 2.11761-.24135 3.18399v.009088c.12522 2.553856 1.00377 5.06833 2.615457 7.047594 2.154974 2.64575 5.507605 4.171602 8.922845 4.35539.758382.040393 1.519792.016158 2.272115-.077756 4.137268-.516023 7.919076-2.973946 10.381038-6.338695 3.102193-4.24128 3.104213-9.805435 1.032045-14.123462zM220.624977 160.3606c-1.671266 1.002759-3.174901 2.331693-4.325096 3.907026-.9967 1.365288-1.728826 2.916385-2.071158 4.59876-.598829 2.93961.072707 6.157934 1.967146 8.48458 2.18123 2.679075 5.845898 3.972665 9.275276 3.544498.488757-.06059.972464-.154504 1.447084-.278713 2.852766-.745253 5.405612-2.583141 7.153626-4.972396 6.049883-8.270496-2.12771-22.608043-13.446878-15.283756zM242.415059 110.15899c-1.24411-3.41928-3.71617-6.48411-7.13343-7.89888-2.77198-1.148174-6.058971-1.100712-8.703712.316077-.994681.53319-1.874242 1.249158-2.616466 2.093375-1.52888 1.738925-2.47206 4.016088-2.628584 6.337684-.025246.372627-.031305.746263-.019187 1.11889.100983 3.06685 1.443045 6.06604 3.53743 8.325027 3.821191 4.12111 10.24976 4.387705 14.444588 1.723778 2.173151-1.379426 3.745454-3.545509 4.047393-6.36899.17773-1.663187-.085835-3.553586-.928032-5.646961zM82.708646 260.375034c-.258516-2.989093-1.815672-5.884272-4.291772-7.578764-2.851756-1.950989-6.732527-2.151945-9.89935-.76949-1.06133.463512-2.038843 1.090615-2.914365 1.841928-.917934.787666-1.722767 1.71166-2.392284 2.727547-.597818.906826-1.087585 1.88636-1.453143 2.905277-2.503365 6.985994 3.050692 14.90709 9.639824 14.858618 1.29965-.009089 2.638682-.329204 3.964587-1.026996 1.23401-.64932 2.456913-1.626834 3.623265-2.988083 2.460952-2.679075 4.042344-6.285173 3.723238-9.970037zM182.390463 118.193045c-3.283963.144405-6.59418 1.443045-8.740067 4.00296-1.740944 2.077218-2.59223 4.921905-2.088325 7.584823.579641 3.06685 2.933552 5.670188 5.840848 6.806245 2.906287 1.135047 6.271036.866433 9.090478-.46957 8.3634-3.965597 8.039245-18.870667-4.102934-17.924458zM89.451271 150.705628c-3.283962.144405-6.59418 1.442035-8.740066 4.00296-1.740945 2.077218-2.59223 4.921905-2.088326 7.584823.579642 3.06685 2.933552 5.670188 5.840849 6.806245 2.906287 1.135047 6.271036.866433 9.090477-.46957 8.36239-3.965597 8.038236-18.870667-4.102934-17.924458zM243.967165 246.500998c-3.283962.144406-6.59418 1.443046-8.740066 4.002961-1.740945 2.077217-2.59223 4.921905-2.088326 7.584823.579642 3.06685 2.933552 5.670187 5.840849 6.806244 2.906286 1.135048 6.271035.866433 9.090477-.46957 8.3634-3.965597 8.039245-18.870667-4.102934-17.924458zM92.286355 180.400718c-3.840378.168642-7.71307 1.687424-10.223505 4.681566-2.035814 2.429647-3.031505 5.757033-2.442775 8.871344.677595 3.586911 3.431398 6.631545 6.83149 7.960479 3.399084 1.327925 7.335395 1.013868 10.632486-.549347 9.78221-4.637133 9.403524-22.070814-4.797696-20.964042zM293.01858 177.274218c-1.498586-1.427897-3.4213-2.342802-5.456104-2.725527-1.682375-.316076-3.440486-.268614-5.097615.154504-2.675036.683654-5.06227 2.278173-6.867844 4.377607-.665477.773529-1.252188 1.615726-1.744984 2.506394-2.398343 4.332165-1.619765 9.567117.967416 13.243902 3.270834 4.646222 9.432809 6.802206 15.72909 1.494547.750302-.59075 1.456173-1.248148 2.098424-1.961087 2.035814-2.259997 3.443515-5.084487 3.674766-8.151337.245388-3.273864-.927023-6.673957-3.30315-8.939003zM142.83384 273.954199c-4.094854-1.94998-8.970307-2.510434-13.241882-.779588-3.465731 1.403662-6.344753 4.320047-7.454554 7.8908-.170661.549348-.29689 1.108793-.381716 1.674297-.551366 3.667697.661438 7.570685 3.094115 10.400224 2.806314 3.264776 7.080918 5.115792 11.381778 5.311699 4.088796.186818 7.818093-1.574323 10.4901-4.273595 5.665138-5.722699 6.582063-15.66648-3.88784-20.223837zM255.224734 304.067288c-.00101-.00101-.00202-.00202-.00202-.00303-.535208-.813922-1.256226-1.576342-2.183249-2.256967-.687693-.504914-1.488487-.965396-2.41147-1.367308-2.967887-1.41275-6.500267-1.81971-9.596402-.565504-2.511443 1.017908-4.59775 3.130469-5.402583 5.71866-.805843 2.59122-.262555 5.503566 1.230981 7.77467.224182.340312.46957.666487.734146.975494.601858.699812 1.29662 1.308738 2.05702 1.82476.00101 0 .00101.00101.00101.00101 1.811633 1.227952 3.995892 1.923724 6.19025 2.023697 7.449505.340312 13.249961-8.237172 9.382317-14.125482zM70.76927 215.681625c-1.871212-.890668-4.098894-1.147165-6.051902-.35647-1.583411.641242-2.899218 1.974216-3.407162 3.606099-.58469 1.87929-.043422 4.026186 1.24007 5.518713 1.282482 1.491517 3.2365 2.337753 5.201627 2.427628 5.82974.265585 10.058902-8.13215 3.017368-11.19597zM98.273134 240.821722c-1.390534-.661437-3.045643-.852295-4.495757-.264575-1.17645.47664-2.153964 1.466271-2.53063 2.679076-.434227 1.396593-.032315 2.991112.920963 4.098894.952269 1.108792 2.404402 1.736905 3.863605 1.803554 4.331154.196916 7.472731-6.040795 2.24182-8.316949zM248.865844 148.6274c-1.871213-.890668-4.099904-1.147165-6.051903-.356469-1.584421.641241-2.899218 1.974215-3.407162 3.606098-.58469 1.879291-.043422 4.026187 1.24007 5.518713 1.282482 1.492527 3.2365 2.337754 5.201627 2.427628 5.83075.265585 10.058903-8.13114 3.017368-11.19597zM205.406153 279.793068c-1.871212-.890669-4.099904-1.147165-6.051903-.35647-1.58341.641242-2.899218 1.974216-3.407161 3.606099-.584691 1.87929-.043423 4.026186 1.23906 5.518713 1.282482 1.492527 3.2365 2.337753 5.201627 2.427628 5.83176.266595 10.060922-8.13114 3.018377-11.19597zM136.41436 139.461187c-1.871212-.89067-4.099904-1.147166-6.051902-.35647-1.583412.641241-2.899218 1.974215-3.407162 3.606098-.58469 1.879291-.043423 4.026187 1.23906 5.518713 1.282482 1.492527 3.2365 2.337753 5.201627 2.427628 5.83075.265585 10.059912-8.13114 3.018377-11.19597zM171.284752 316.95977c-1.871213-.89067-4.098895-1.147166-6.051903-.35647-1.583411.641241-2.899218 1.974215-3.407162 3.606098-.58469 1.87929-.043422 4.026186 1.23906 5.518713 1.282482 1.491517 3.2365 2.337753 5.201627 2.427628 5.83075.265585 10.059913-8.13114 3.018378-11.19597zM268.241556 217.729214c-1.390534-.661437-3.045643-.852295-4.495757-.264575-1.17645.47664-2.153964 1.466271-2.53063 2.679076-.434226 1.396593-.032315 2.991112.920964 4.098894.952268 1.108792 2.404402 1.736905 3.863604 1.803554 4.331155.196916 7.472731-6.040795 2.24182-8.316949z" />
    </g>
    <g class="face">
      <g class="eyes">
        <path fill="#3c2415"
          d="M147.941623 211.47081c0 9.094356-7.375033 16.467967-16.470812 16.467967-9.095779 0-16.470811-7.375033-16.470811-16.467968 0-9.095778 7.37361-16.470811 16.470811-16.470811 9.095779 0 16.470812 7.37361 16.470812 16.470811z" />
        <path fill="#fff"
          d="M129.4628 204.445614c0 2.90536-2.355005 5.260364-5.260364 5.260364-2.905359 0-5.258941-2.355005-5.258941-5.260364 0-2.905359 2.353582-5.25752 5.258941-5.25752 2.90536 0 5.260364 2.352161 5.260364 5.25752zM129.087364 212.462016c0 1.090754-.88597 1.978147-1.979569 1.978147-1.093598 0-1.979569-.88597-1.979569-1.978147 0-1.09502.885971-1.980991 1.97957-1.980991 1.093598 0 1.979568.88597 1.979568 1.980991zM132.71373 207.195964c0 .68261-.556042 1.238653-1.241497 1.238653-.685454 0-1.241497-.556043-1.241497-1.238653 0-.685454.55462-1.241497 1.241497-1.241497.684032 0 1.241497.55462 1.241497 1.241497z" />
        <path fill="#3c2415"
          d="M235 211.47081c0 9.094356-7.375032 16.467967-16.47081 16.467967-9.09578 0-16.46939-7.375033-16.46939-16.467968 0-9.095778 7.37361-16.470811 16.46939-16.470811 9.095778 0 16.47081 7.37361 16.47081 16.470811z" />
        <path fill="#fff"
          d="M216.521178 204.445614c0 2.90536-2.355004 5.260364-5.260363 5.260364-2.90536 0-5.260364-2.355005-5.260364-5.260364 0-2.905359 2.355005-5.25752 5.260364-5.25752 2.905359 0 5.260363 2.352161 5.260363 5.25752zM216.145743 212.462016c0 1.090754-.887393 1.978147-1.97957 1.978147-1.093598 0-1.98099-.88597-1.98099-1.978147 0-1.09502.887392-1.980991 1.98099-1.980991 1.092177 0 1.97957.88597 1.97957 1.980991zM219.770686 207.195964c0 .68261-.556042 1.238653-1.241497 1.238653-.685454 0-1.241497-.556043-1.241497-1.238653 0-.685454.556043-1.241497 1.241497-1.241497.685455 0 1.241497.55462 1.241497 1.241497z" />
      </g>
      <g class="mouth-yummy">
        <path fill="#f27482"
          d="M197.610586 248.43479c-1.007796 0-2.067273-.247642-3.154745-.740772-3.654336-1.649512-7.235455-3.65649-6.550671-6.272882.325165-1.246824 1.24467-2.749903 2.054352-4.076403.236875-.387614.45437-.742927.620182-1.037944.721392-1.274818 1.660279-1.918687 2.797279-1.918687.919506 0 1.675352.424221 2.478574.87213.239028.135665.497438.279944.775227.419915l.465137.228262c2.190017 1.083164 5.187563 2.56471 6.018779 5.28016.422068 1.373874.213187 2.816659-.620182 4.28313-1.078858 1.912228-2.812353 2.963091-4.883932 2.963091z" />
        <path fill="#3c2415"
          d="M193.37483 236.06776c.674017 0 1.442784.583575 2.500108 1.113313 2.683148 1.345881 7.46587 3.39808 5.157415 7.46587-.813989 1.440631-2.022051 2.110342-3.42392 2.110342-.773075 0-1.60429-.20242-2.463501-.590035-1.014256-.458676-6.04462-2.691761-5.618245-4.319739.355313-1.3588 1.832551-3.507903 2.510875-4.713813.443603-.781687.867824-1.065937 1.337268-1.065937m0-3.355012c-1.227444 0-2.963092.48021-4.25729 2.767131-.161506.286403-.368234.622335-.594342.992722-.869977 1.423403-1.856238 3.03846-2.243852 4.52862-1.134847 4.33912 4.647057 6.946898 7.424955 8.200182 1.365262.615875 2.65946.917353 3.906285.917353 2.661614 0 4.976529-1.391103 6.346097-3.815842 1.328653-2.345062 1.147767-4.341273.762307-5.601017-1.044404-3.406694-4.556614-5.144495-6.880143-6.292262l-.456523-.226108c-.254102-.129205-.490977-.260563-.708471-.383307-.865671-.48667-1.942376-1.087472-3.299023-1.087472z" />
        <path fill="#f27482" stroke="#3c2415" stroke-linecap="round" stroke-linejoin="round" stroke-miterlimit="10"
          stroke-width="3.3575957961519993" d="m191.376466 239.177284 4.612602 2.616392" />
        <path fill="none" stroke="#3c2415" stroke-linecap="round" stroke-linejoin="round" stroke-miterlimit="10"
          stroke-width="4.476948352198701"
          d="M191.9342 230.238474c0 9.580522-7.765187 17.350037-17.347862 17.350037-9.582675 0-17.347862-7.767362-17.347862-17.350037" />
      </g>
      <g fill="none" stroke="#3c2415" stroke-linecap="round" stroke-linejoin="round" stroke-miterlimit="10"
        stroke-width="2.079" class="mouth-default">
        <path stroke-width="4.85906607648"
          d="M175 230.42953c-1.862759 9.009957-6.223998 15.33913-11.302762 15.33913-5.04838 0-9.383911-6.245034-11.267705-15.163839M197.570467 230.42953c-1.862759 9.009957-6.221661 15.33913-11.302762 15.33913-5.04838 0-9.383911-6.245034-11.265368-15.163839" />
      </g>
      <g class="mouth-concern">
        <path fill="none" stroke="#3c2415" stroke-linecap="round" stroke-linejoin="round" stroke-miterlimit="10"
          stroke-width="4.6693969087305"
          d="M152.334701 240.770159c4.498706-5.974308 11.962106-3.061265 16.775232.303211 3.568856 2.490803 9.52744 3.510477 13.637584 1.864164 5.221894-2.093264 8.95922-7.189374 14.917784-2.948972"
          class="path136" />
      </g>
      <g class="mouth-open">
        <path fill="#f04e4c"
          d="M174.99876 256.799116c-12.369888 0-22.435992-10.063638-22.435992-22.435992 0-.345321.069064-.683242.20226-1.001431.739972-1.741404 4.385574-5.796458 22.231265-5.796458 14.16309 0 21.012777 4.474372 21.296433 4.666765.710375.47605 1.137093 1.277688 1.137093 2.131124.002466 12.372354-10.061171 22.435992-22.43106 22.435992z" />
        <path fill="#3c2415"
          d="M174.99876 230.12801c13.546445 0 19.870751 4.235114 19.870751 4.235114 0 10.973804-8.896946 19.873217-19.870751 19.873217-10.973805 0-19.870751-8.896946-19.870751-19.873217 0 0 1.795668-4.235115 19.87075-4.235115m0-5.128015c-17.747027 0-23.168565 4.003256-24.59178 7.360268-.268857.63391-.406986 1.31222-.406986 2.002862 0 13.785703 11.21553 25.001233 24.998767 25.001233 13.783237 0 24.998766-11.21553 24.998766-25.001233 0-1.709339-.853436-3.310148-2.276651-4.262247-.779439-.520448-8.04351-5.100883-22.722115-5.100883z" />
        <path fill="#fff"
          d="M176.034723 243.15894c-21.834148 0-21.915545-.278723-22.554388-2.446845-.609245-2.057126-.917567-4.193182-.917567-6.346505 0-.34532.069064-.683242.20226-1.00143.739972-1.741404 4.385574-5.796458 22.231265-5.796458 14.16309 0 21.012777 4.474372 21.296433 4.666765.710375.47605 1.137093 1.277687 1.137093 2.131123 0 2.185388-.315722 4.351044-.942233 6.437768-.64871 2.175522-.702975 2.355582-20.452863 2.355582z" />
        <path fill="#3c2415"
          d="M174.99876 230.12801c13.546445 0 19.870751 4.235114 19.870751 4.235114 0 1.985595-.293523 3.897193-.833703 5.705194-.103597.35272-8.892013.525381-17.998619.525381-9.80218 0-19.976814-.20226-20.09521-.606778-.527847-1.783336-.81397-3.670268-.81397-5.62133 0-.002467 1.795668-4.237582 19.87075-4.237582m0-5.128015c-17.747027 0-23.168565 4.003256-24.59178 7.360268-.268857.63391-.406986 1.31222-.406986 2.002862 0 2.402446.345321 4.780228 1.02363 7.076611 1.137092 3.855262 4.082186 3.936659 11.195797 4.126585 3.707266.098663 8.61329.155395 13.81777.155395 4.78516 0 9.227467-.049332 12.510482-.133196 6.358838-.16526 9.259533-.24419 10.401559-4.05012.695575-2.32845 1.050762-4.74323 1.050762-7.175275 0-1.709339-.853436-3.310148-2.276651-4.262247-.781906-.520448-8.045977-5.100883-22.724582-5.100883z" />
      </g>
    </g>
  </g>
</svg>